<svg xmlns="http://www.w3.org/2000/svg" fill="none" width="305" height="36" viewBox="0 0 305 36"><path fill="currentColor" d="M255.97 35.88h2.94c2.79 0 4.05-1.33 4.05-4.25s-1.27-4.26-4.05-4.26h-2.94v8.51Zm1.22-1.09v-6.32h1.76c1.92 0 2.79.99 2.79 3.16s-.88 3.16-2.79 3.16h-1.76Zm7.48 1.09h6.32v-1.09h-5.11v-2.74h4.26v-1.1h-4.26v-2.49h4.99v-1.09h-6.2v8.51Zm10.61.12c2.17 0 3.15-.76 3.15-2.47 0-1.41-.7-2.17-2.27-2.42l-1.41-.23c-.8-.12-1.17-.51-1.17-1.22 0-.91.56-1.32 1.81-1.32h.12c1.25 0 1.82.49 1.82 1.58h1.22c0-1.84-.95-2.68-3.05-2.68-2.1 0-3.14.76-3.14 2.43 0 1.41.67 2.17 2.15 2.42l1.41.24c.88.16 1.29.53 1.29 1.2 0 .94-.55 1.36-1.76 1.36h-.12c-1.5 0-2.17-.55-2.17-1.76h-1.22c0 1.97 1.05 2.86 3.35 2.86m4.28-.12h7.29v-1.01h-3.04v-6.49h3.04v-1.01h-7.29v1.01h3.04v6.49h-3.04v1.01Zm12.33.12c1.3 0 2.1-.37 2.58-1.2v1.08h1.1v-4.32h-3.53v1.08h2.43v.23c0 1.4-.74 2.03-2.4 2.03h-.12c-1.94 0-2.84-1.02-2.84-3.28s.89-3.28 2.84-3.28h.12c1.39 0 2.08.57 2.21 1.82h1.22c-.14-2.01-1.23-2.92-3.49-2.92-2.84 0-4.11 1.36-4.11 4.38 0 3.02 1.24 4.38 4 4.38m5.59-.12h1.22v-7.04l3.95 7.04h1.7v-8.51h-1.22v7.04l-3.95-7.04h-1.7v8.51Zm-38.01-14.46c2.76 0 4.01-1.36 4.01-4.38 0-3.02-1.25-4.38-4.01-4.38s-4.01 1.36-4.01 4.38c0 3.02 1.25 4.38 4.01 4.38Zm-2.79-4.38c0-2.26.85-3.28 2.74-3.28h.12c1.89 0 2.74 1.02 2.74 3.28s-.85 3.28-2.74 3.28h-.12c-1.89 0-2.74-1.02-2.74-3.28Zm8.5 4.26h1.22V17.7h4.13v-1.09h-4.13v-2.74h4.74v-1.09h-5.96v8.51Zm-98.4 14.67c2.17 0 3.15-.76 3.15-2.47 0-1.41-.71-2.17-2.28-2.42l-1.41-.23c-.81-.12-1.17-.51-1.17-1.22 0-.91.56-1.32 1.81-1.32h.12c1.25 0 1.82.49 1.82 1.58h1.22c0-1.84-.95-2.68-3.05-2.68-2.1 0-3.14.76-3.14 2.43 0 1.41.67 2.17 2.15 2.42l1.41.24c.89.16 1.29.53 1.29 1.2 0 .94-.55 1.36-1.76 1.36h-.12c-1.5 0-2.17-.55-2.17-1.76h-1.22c0 1.97 1.05 2.86 3.35 2.86m8.36 0c2.25 0 3.33-.88 3.48-2.79h-1.22c-.14 1.17-.81 1.7-2.15 1.7h-.12c-1.87 0-2.71-1.02-2.71-3.28s.84-3.28 2.71-3.28h.12c1.34 0 2.01.53 2.15 1.7h1.22c-.14-1.92-1.2-2.79-3.43-2.79-2.75 0-3.99 1.36-3.99 4.38 0 3.02 1.22 4.38 3.94 4.38m5.12-.12h1.22v-3.71h4.32v3.71h1.22v-8.51h-1.22v3.71h-4.32v-3.71h-1.22v8.51Zm12.46.12c2.76 0 4.01-1.36 4.01-4.38 0-3.02-1.25-4.38-4.01-4.38s-4.01 1.36-4.01 4.38c0 3.02 1.25 4.38 4.01 4.38Zm-2.8-4.38c0-2.26.85-3.28 2.74-3.28h.12c1.89 0 2.74 1.02 2.74 3.28s-.85 3.28-2.74 3.28h-.12c-1.89 0-2.74-1.02-2.74-3.28Zm12.02 4.38c2.76 0 4.01-1.36 4.01-4.38 0-3.02-1.25-4.38-4.01-4.38s-4.01 1.36-4.01 4.38c0 3.02 1.25 4.38 4.01 4.38Zm-2.8-4.38c0-2.26.85-3.28 2.74-3.28h.12c1.89 0 2.74 1.02 2.74 3.28s-.85 3.28-2.74 3.28h-.12c-1.88 0-2.74-1.02-2.74-3.28Zm8.5 4.25h6.2v-1.09h-4.98v-7.42h-1.22v8.51Zm-40.05-14.48c1.3 0 2.1-.37 2.58-1.2v1.08h1.09v-4.32h-3.53V18h2.43v.23c0 1.4-.74 2.03-2.4 2.03h-.12c-1.94 0-2.84-1.02-2.84-3.28s.89-3.28 2.84-3.28h.12c1.39 0 2.08.57 2.21 1.82h1.22c-.14-2.01-1.23-2.92-3.49-2.92-2.84 0-4.11 1.36-4.11 4.38 0 3.02 1.25 4.38 4 4.38Zm5.6-.12h1.22v-3.41h2.61c.79 0 1.15.37 1.15 1.15v2.25h1.22v-2.38c0-1.04-.41-1.57-1.34-1.66 1.01-.33 1.46-.99 1.46-2.15 0-1.59-.88-2.31-2.82-2.31h-3.5v8.52-.01Zm1.22-4.5v-2.92h2.33c1.08 0 1.57.44 1.57 1.41 0 1.04-.53 1.5-1.68 1.5h-2.22v.01Zm6.04 4.5h1.24l.85-2.19h4.06l.85 2.19h1.27l-3.35-8.51h-1.56l-3.36 8.51Zm2.52-3.28 1.61-4.11 1.61 4.11h-3.22Zm6.94 3.28h2.94c2.79 0 4.05-1.33 4.05-4.25s-1.27-4.26-4.05-4.26h-2.94v8.51Zm1.22-1.09v-6.32h1.76c1.92 0 2.79.99 2.79 3.16s-.88 3.16-2.79 3.16h-1.76Zm10.63 1.22c2.21 0 3.23-.96 3.23-3.1v-5.54h-1.22v5.47c0 1.43-.61 2.07-1.94 2.07h-.12c-1.34 0-1.94-.65-1.94-2.07v-5.47h-1.22v5.54c0 2.15 1 3.1 3.22 3.1m4.33-.12h1.24l.85-2.19h4.06l.85 2.19h1.27l-3.35-8.51h-1.55l-3.36 8.51h-.01Zm2.51-3.28 1.61-4.11 1.6 4.11h-3.21Zm8.37 3.28h1.22v-7.42h3.04v-1.09h-7.29v1.09h3.04v7.42H217Zm5.55 0h6.32v-1.09h-5.11v-2.74h4.26v-1.1h-4.26v-2.49h4.99v-1.09h-6.2v8.51ZM56.21 35.96c2.21 0 3.23-.96 3.23-3.1v-5.54h-1.22v5.47c0 1.43-.6 2.07-1.94 2.07h-.12c-1.34 0-1.94-.65-1.94-2.07v-5.47H53v5.54c0 2.15 1 3.1 3.22 3.1m5.33-.12h1.22V28.8l3.95 7.04h1.7v-8.51H67.2v7.04l-3.95-7.04h-1.7v8.51Zm8.54 0h7.29v-1.01h-3.04v-6.49h3.04v-1.01h-7.29v1.01h3.04v6.49h-3.04v1.01Zm11.95 0h1.58l3.35-8.51h-1.28l-2.82 7.41-2.95-7.41h-1.29l3.4 8.51h.01Zm6.12 0h6.32v-1.09h-5.11v-2.74h4.26v-1.1h-4.26v-2.49h4.99v-1.09h-6.2v8.51Zm7.93 0h1.22v-3.41h2.61c.79 0 1.15.37 1.15 1.15v2.25h1.22v-2.38c0-1.04-.41-1.57-1.34-1.66 1.01-.33 1.46-1 1.46-2.15 0-1.59-.88-2.31-2.82-2.31h-3.5v8.52-.01Zm1.22-4.5v-2.92h2.32c1.08 0 1.57.44 1.57 1.41 0 1.04-.53 1.51-1.68 1.51H97.3h.01Zm10.23 4.62c2.17 0 3.15-.76 3.15-2.47 0-1.41-.71-2.17-2.28-2.42l-1.41-.23c-.8-.12-1.17-.51-1.17-1.22 0-.91.56-1.32 1.82-1.32h.12c1.25 0 1.82.49 1.82 1.58h1.22c0-1.84-.95-2.68-3.05-2.68-2.1 0-3.14.76-3.14 2.43 0 1.41.67 2.17 2.15 2.42l1.41.24c.89.16 1.29.53 1.29 1.2 0 .94-.55 1.36-1.76 1.36h-.12c-1.5 0-2.17-.55-2.17-1.76h-1.22c0 1.97 1.04 2.86 3.35 2.86m4.28-.12h7.29v-1.01h-3.04v-6.49h3.04v-1.01h-7.29v1.01h3.04v6.49h-3.04v1.01Zm11.72 0h1.22v-7.42h3.04v-1.09h-7.29v1.09h3.04v7.42h-.01Zm8.31 0h1.22V32.3l3.04-4.98h-1.36l-2.25 3.76-2.27-3.76h-1.41l3.04 4.98v3.53h-.01ZM53.05 21.24h1.22v-3.71h4.32v3.71h1.22v-8.51h-1.22v3.71h-4.32v-3.71h-1.22v8.51Zm7.93 0h1.24l.85-2.19h4.06l.85 2.19h1.27l-3.34-8.51h-1.55l-3.37 8.51h-.01Zm2.51-3.28 1.61-4.11 1.61 4.11h-3.22Zm6.95 3.28h1.22v-3.4h2.61c.79 0 1.15.37 1.15 1.15v2.25h1.22v-2.38c0-1.04-.41-1.57-1.34-1.66 1.01-.33 1.46-.99 1.46-2.15 0-1.59-.88-2.31-2.82-2.31h-3.5v8.52-.02Zm1.22-4.5v-2.92h2.32c1.08 0 1.57.44 1.57 1.41 0 1.04-.53 1.5-1.68 1.5h-2.22l.01.01Zm9.43 4.5h1.58l3.35-8.51h-1.28l-2.82 7.41-2.94-7.41h-1.29l3.4 8.51Zm5.11 0h1.24l.85-2.19h4.06l.85 2.19h1.27l-3.35-8.51h-1.56l-3.36 8.51Zm2.51-3.28 1.61-4.11 1.61 4.11h-3.22Zm6.95 3.28h1.22v-3.4h2.61c.79 0 1.15.37 1.15 1.15v2.25h1.22v-2.38c0-1.04-.41-1.57-1.34-1.66 1.01-.33 1.46-.99 1.46-2.15 0-1.59-.88-2.31-2.82-2.31h-3.5v8.52-.02Zm1.22-4.5v-2.92h2.33c1.08 0 1.57.44 1.57 1.41 0 1.04-.53 1.5-1.68 1.5h-2.22v.01Zm7.05 4.5h2.94c2.79 0 4.05-1.32 4.05-4.26 0-2.94-1.27-4.25-4.05-4.25h-2.94v8.51Zm1.22-1.09v-6.32h1.76c1.92 0 2.79.99 2.79 3.16s-.88 3.16-2.79 3.16h-1.76ZM30.97 0h-4.7v4.59h4.7V0Zm0 31.41h-4.7V36h4.7v-4.59Zm0-6.27h-4.7v4.58h4.7v-4.58Zm0-6.29h-4.7v4.59h4.7v-4.59Zm-13.14-3.14h-4.7v4.58h4.7v-4.58Zm6.69 0h-4.7v4.58h4.7v-4.58Zm-13.37 0h-4.7v4.58h4.7v-4.58Zm19.82-3.15h-4.7v4.59h4.7v-4.59ZM4.7 0H0v4.59h4.7V0Zm0 31.41H0V36h4.7v-4.59Zm0-6.27H0v4.58h4.7v-4.58Zm0-6.29H0v4.59h4.7v-4.59Zm0-6.29H0v4.59h4.7v-4.59Zm0-6.27H0v4.58h4.7V6.29Zm26.27 0h-4.7v4.58h4.7V6.29Z"></path></svg>