<svg height="65" viewBox="0 0 476 65" width="476" xmlns="http://www.w3.org/2000/svg"><g fill="none" fill-rule="evenodd" transform="translate(0 .5)"><path d="m12.3353889 43.7945806v13.9974194c0 4.3354839-3.12444446 6.208-6.18722223 6.208-3.06894445 0-6.14816667-1.9303226-6.14816667-6.208v-1.156129h3.57666667v.9269677c0 2.3452903 1.27855555 3.1339355 2.62288889 3.1339355 1.34227777 0 2.53655555-.8113548 2.53655555-2.9605161v-10.8387097h-5.106v-3.1029678h8.70322219zm58.9512778-.3385806c3.7945555 0 5.9405555 2.1305806 5.9405555 2.1305806l-1.5766111 2.935742s-1.9055-1.7341936-4.3886111-1.7341936c-1.6793889 0-2.9867222.9785807-2.9867222 2.3803871 0 1.5029678 1.6999444 2.2049033 3.6486111 3.0100645 2.6187778 1.083871 5.6897778 2.3535484 5.6897778 5.9994839 0 3.1628387-2.405 5.8178065-6.5469445 5.8178065-4.4071111 0-6.8367778-2.7148387-6.8367778-2.7148387l1.9548334-2.7127742c.0760555.0743225 2.1953333 2.0975484 4.9374444 2.0975484 1.5005556 0 2.8736667-.7824517 2.8736667-2.4072259 0-1.5380645-1.7533889-2.2957419-3.7411111-3.1545806-2.6064445-1.1230968-5.6157778-2.4237419-5.6157778-5.883871 0-3.3073548 2.8531111-5.764129 6.6476667-5.764129zm39.7133333-20.731871v41.271742h-25.5772778v-25.4658065l-23.4662222-14.8232258-20.1156667 13.0353548v-14.0180645l34.1427778-22.724129zm-82.9190556 20.731871c4.7812223 0 7.2561112 2.6549677 7.3116112 2.7127742l-1.7266667 2.683871c-.0123333-.0123871-2.2713889-2.0934194-5.4184445-2.0934194-4.1851111 0-6.6435555 3.1380645-6.6435555 6.8294194 0 3.6913548 2.5386111 7.104 6.6723333 7.104 3.4327778 0 5.7535-2.5187097 5.7535-2.5187097l1.8952222 2.6012903c-.0143888.0206452-2.7421111 3.2165161-7.7843888 3.2165161-6.0556667 0-10.2510556-4.5027096-10.2510556-10.3514838 0-5.76 4.3577778-10.1842581 10.1914444-10.1842581zm17.3612223.3344516v8.4252903h9.0691111v-8.4252903h3.6054444v19.8709678h-3.6054444v-8.3406452h-9.0691111v8.3406452h-3.6013334v-19.8730323h3.6013334z" fill="#c24f00" fill-rule="nonzero"/><path d="m256.379 35.502c-.002.939-.342 1.673-1.026 2.194-.681.527-1.613.793-2.778.793-1.268 0-2.242-.163-2.923-.49v-1.202c.462244.195233.943483.3420176 1.436.438.504122.1063603 1.017785.1609768 1.533.163.83 0 1.455-.158 1.874-.47.42-.313.63-.75.63-1.31 0-.373-.075-.676-.224-.909-.149-.237-.396-.452-.746-.657-.35-.2-.876-.424-1.594-.68-.993-.359-1.702-.778-2.135-1.268-.424-.489-.639-1.123-.639-1.906 0-.825.312-1.482.928-1.966.615-.485 1.44-.732 2.461-.732s2.042.196 2.932.587l-.387 1.081c-.881-.372-1.743-.554-2.573-.554-.662 0-1.175.14-1.543.424-.373.284-.555.676-.555 1.179 0 .373.07.676.206.913.139.238.368.452.689.653.327.195.821.414 1.487.652 1.119.4 1.898.83 2.313 1.286.423.456.633 1.046.634 1.78zm-110.455 2.838-1.333-3.398h-4.284l-1.315 3.398h-1.258l4.228-10.733h1.049l4.204 10.733h-1.29zm-1.714-4.52-1.245-3.31c-.190229-.5054574-.355101-1.0200982-.494-1.542-.123493.5225425-.277423 1.0374204-.461 1.542l-1.26 3.31zm-8.955 4.52h1.24v-10.69h-1.24v4.547h-5.632v-4.547h-1.245v10.69h1.245v-5.028h5.63v5.029zm-9.255 24.946c.494.14 1.067.21 1.725.21v.004c1.43 0 2.517-.42 3.253-1.263.732-.839 1.1-2.064 1.1-3.668v-12.861h-2.918v12.886c0 .843-.14 1.468-.414 1.864-.28.396-.737.596-1.376.596-.41 0-.867-.065-1.37-.19v2.423zm20.04-5.476c1.123-1.221 1.692-2.969 1.692-5.247h.01c0-2.284-.565-4.031-1.684-5.248-1.118-1.216-2.736-1.822-4.848-1.822-2.111 0-3.733.606-4.866 1.808-1.133 1.207-1.702 2.955-1.702 5.243s.564 4.04 1.693 5.266c1.128 1.226 2.745 1.836 4.852 1.836s3.725-.61 4.853-1.836zm-7.473-1.776c-.582-.778-.871-1.934-.871-3.471 0-1.534.293-2.694.88-3.472.588-.783 1.464-1.17 2.625-1.17 2.317 0 3.473 1.556 3.473 4.646s-1.165 4.633-3.492 4.633c-1.16 0-2.032-.386-2.615-1.165zm11.72-10.331v13.747h2.918v-13.747zm14.58 13.747h3.702v-13.747h-2.625v6.505c0 .741.047 2.004.14 3.79h-.065l-5.971-10.295h-3.678v13.747h2.605v-6.468c0-.788-.06-2.097-.177-3.933h.084l5.129 8.928zm9.263 0h2.918v-11.32h3.734v-2.423h-10.386v2.424h3.734v11.32zm16.954-10.28c.606-.825 1.454-1.235 2.55-1.235v-.01c.503 0 1.011.098 1.534.27.528957.1839769 1.047114.3976497 1.552.64l.941-2.373c-1.347-.638-2.717-.964-4.027-.964s-2.457.289-3.431.862-1.725 1.398-2.242 2.474c-.518 1.077-.779 2.33-.779 3.756 0 2.27.532 4.013 1.59 5.225 1.058 1.216 2.592 1.822 4.591 1.822 1.394 0 2.653-.243 3.78-.709v-2.442c-1.374.485-2.544.727-3.51.727-2.307 0-3.453-1.528-3.453-4.595 0-1.472.303-2.623.904-3.448zm8.698 10.28h7.916v-2.414h-5.002v-3.546h4.652v-2.386h-4.652v-3.015h5.002v-2.386h-7.916zm18.987 0h3.7v-13.747h-2.623v6.505c0 .741.046 2.004.14 3.79h-.066l-5.97-10.296h-3.68v13.748h2.605v-6.468c0-.788-.06-2.097-.177-3.933h.084l5.988 10.401zm9.262 0h2.918v-11.32h3.734v-2.423h-10.386v2.424h3.734v11.32zm8.484 0h7.915v-2.414h-5.002v-3.546h4.653v-2.386h-4.653v-3.015h5.002v-2.386h-7.915zm13.411.005v-5.275h1.557l3.282 5.27h3.235c-.629-.9-1.977-2.898-4.046-5.988.811-.359 1.44-.853 1.888-1.482.443-.63.666-1.351.666-2.158 0-1.38-.447-2.414-1.342-3.094s-2.28-1.02-4.149-1.02h-4.009v13.747zm.942-7.647h-.942v-3.71h.886c.941 0 1.636.14 2.084.415.447.275.671.731.671 1.389 0 .657-.219 1.137-.657 1.444-.439.308-1.119.462-2.042.462zm14.367 7.638h2.866v-5.434h4.667v-2.382h-4.667v-3.547h5.012v-2.386h-7.878v13.748zm21.065-1.646c1.123-1.221 1.692-2.969 1.692-5.248h.009c0-2.283-.559-4.03-1.682-5.247-1.119-1.216-2.732-1.822-4.848-1.822-2.117 0-3.739.605-4.872 1.808-1.128 1.207-1.696 2.954-1.696 5.243 0 2.288.564 4.04 1.692 5.266 1.128 1.225 2.745 1.836 4.852 1.836s3.725-.61 4.853-1.836zm-7.468-1.776c-.583-.778-.872-1.934-.872-3.472 0-1.533.294-2.693.882-3.472.587-.782 1.463-1.17 2.624-1.17 2.317 0 3.473 1.557 3.473 4.647s-1.166 4.632-3.492 4.632c-1.16 0-2.027-.387-2.615-1.165zm14.637 3.425v-5.275h1.557l3.282 5.27h3.235c-.629-.899-1.976-2.898-4.046-5.988.811-.358 1.44-.852 1.888-1.482.44367-.630895.676755-1.3857959.666-2.157 0-1.38-.447-2.414-1.342-3.095-.895-.68-2.28-1.02-4.149-1.02h-4.009v13.748h2.918zm.942-7.647h-.942v-3.71h.886c.942 0 1.636.14 2.084.415.447.275.671.732.671 1.389s-.219 1.137-.657 1.445c-.438.307-1.119.46-2.042.46zm21.103 7.666h2.904v-13.751h-2.904v5.392h-5.445v-5.389h-2.918v13.75h2.918v-5.933h5.445v5.933zm16.87-1.645c1.123-1.221 1.692-2.973 1.692-5.248h.009c0-2.288-.559-4.035-1.683-5.247-1.119-1.216-2.731-1.822-4.848-1.822-2.116 0-3.738.606-4.871 1.808-1.128 1.207-1.697 2.955-1.697 5.243s.564 4.04 1.692 5.266c1.128 1.225 2.746 1.836 4.853 1.836s3.725-.61 4.853-1.836zm-7.473-1.776c-.582-.778-.871-1.934-.871-3.471v-.005c0-1.533.293-2.694.881-3.472.587-.783 1.463-1.17 2.624-1.17 2.317 0 3.473 1.552 3.473 4.646 0 3.095-1.166 4.637-3.492 4.637-1.16 0-2.027-.386-2.615-1.165zm20.012-10.322h2.909v8.887c0 1.016-.229 1.906-.685 2.67-.453.765-1.11 1.352-1.972 1.757-.858.41-1.874.61-3.049.61-1.767 0-3.142-.451-4.121-1.36-.979-.904-1.463-2.144-1.463-3.719v-8.85h2.904v8.412c0 1.063.21 1.836.638 2.335.429.494 1.133.745 2.117.745.983 0 1.641-.247 2.074-.745.429-.499.648-1.282.648-2.344zm12.759 12.862c.895-.718 1.342-1.692 1.342-2.936l-.014.005c0-.9-.238-1.654-.718-2.274-.471-.615-1.352-1.235-2.638-1.846-.97-.461-1.585-.783-1.846-.964-.225582-.1441964-.41923-.3330798-.569-.555-.120149-.2028975-.181437-.4352386-.177-.671 0-.415.149-.75.443-1.007.294-.256.718-.386 1.268-.386.466 0 .937.06 1.417.177.48.12 1.091.326 1.823.629l.941-2.265c-.660519-.2874964-1.341371-.5258114-2.037-.713-.668583-.1702722-1.356082-.2549496-2.046-.2520745-1.455 0-2.592.3500745-3.417 1.0440745-.825.695-1.235 1.65-1.235 2.866 0 .648.125 1.212.377 1.692s.587.904 1.007 1.267c.424.364 1.054.741 1.893 1.137.895.42 1.491.737 1.78.928.294.196.513.396.662.606.152278.2096325.232615.4629219.229.722 0 .485-.173.843-.513 1.09-.345.247-.835.369-1.473.369-.595641-.0089744-1.187723-.0936535-1.762-.252-.644-.163-1.431-.457-2.359-.871v2.707c1.128.55 2.429.825 3.892.825 1.59 0 2.839-.359 3.73-1.072zm3.542-12.867v13.75h2.918v-13.75zm14.582 13.748h3.705l-.004-.005v-13.746h-2.625v6.51c0 .741.047 2.004.14 3.789h-.065l-5.971-10.295h-3.678v13.749h2.605v-6.47c0-.788-.06-2.098-.177-3.934h.084zm17.555-7.722h-5.454l-.01.005v2.428h2.606v2.87c-.608811.1248349-1.228527.1888164-1.85.191-1.166 0-2.056-.4-2.667-1.183-.61-.783-.918-1.98-.918-3.416s.378-2.573 1.137-3.416c.76-.844 1.772-1.268 3.03-1.268 1.087 0 2.126.247 3.133.75l.969-2.334c-1.288279-.5601999-2.678192-.8488715-4.083-.848002-2.252 0-4.014.615002-5.281 1.860002-1.268 1.234-1.902 2.902-1.902 5.186 0 2.283.545 4.03 1.64 5.252 1.096 1.22 2.676 1.827 4.759 1.827.816 0 1.613-.056 2.396-.173.848452-.1319063 1.684371-.3346142 2.499-.606v-7.125zm15.29 6.934c.895-.717 1.342-1.691 1.342-2.936l-.014.005c0-.9-.238-1.654-.718-2.274-.471-.615-1.352-1.235-2.638-1.845-.97-.462-1.585-.783-1.846-.965-.225582-.1441964-.41923-.3330798-.569-.555-.119969-.2026069-.181251-.4345768-.177-.67 0-.415.149-.751.443-1.007.294-.257.718-.387 1.268-.387.466 0 .937.06 1.417.177.48.121 1.091.326 1.823.629l.941-2.265c-.660519-.2874964-1.341371-.5258114-2.037-.713-.668583-.1702722-1.356082-.2549496-2.046-.2520745-1.455 0-2.592.3500745-3.417 1.0440745-.825.695-1.236 1.65-1.236 2.866 0 .648.126 1.212.378 1.692s.587.904 1.007 1.268c.424.363 1.053.74 1.893 1.137.894.42 1.491.736 1.78.927.294.196.513.396.662.606.152278.2096325.232615.4629219.229.722 0 .485-.173.844-.513 1.09-.345.248-.835.369-1.473.369-.595641-.0089744-1.187723-.0936535-1.762-.252-.644-.163-1.431-.456-2.359-.871v2.707c1.128.55 2.429.825 3.892.825 1.59 0 2.839-.359 3.73-1.072zm5.934.881h2.918v-11.32h3.734v-2.427h-10.386v2.427h3.734zm16.762-13.743h2.909v8.887c0 1.016-.228 1.906-.685 2.67-.452.765-1.109 1.352-1.972 1.757-.858.41-1.874.61-3.048.61-1.767 0-3.142-.451-4.121-1.36-.979-.904-1.464-2.144-1.464-3.719v-8.85h2.904v8.412c0 1.063.21 1.836.639 2.335.429.494 1.133.746 2.116.746.984 0 1.641-.247 2.074-.746.429-.499.648-1.282.648-2.344zm15.453 11.942c1.292-1.207 1.935-2.94 1.935-5.201h-.005c0-2.125-.62-3.78-1.864-4.963-1.236-1.189-2.984-1.78-5.226-1.78h-4.317v13.747h3.893c2.433 0 4.298-.601 5.584-1.803zm-5.001-9.558c2.605 0 3.91 1.476 3.911 4.43-.001 3.013-1.404 4.517-4.214 4.517h-1.25v-8.947zm9.5-2.386v13.747h2.918v-13.748h-2.918zm6.088 13.747h7.915v-2.409h-5.002v-3.547h4.652v-2.39h-4.652v-3.017h5.002v-2.386h-7.915v13.747zm17.271-.88c.894-.718 1.342-1.692 1.342-2.937l-.014.005c0-.9-.238-1.654-.718-2.274-.471-.615-1.352-1.235-2.638-1.845-.97-.462-1.585-.783-1.846-.965-.225582-.1441964-.41923-.3330798-.569-.555-.119969-.2026069-.181251-.4345768-.177-.67 0-.415.149-.751.443-1.007.293-.257.718-.387 1.268-.387.466 0 .937.06 1.417.177.48.121 1.091.326 1.822.629l.942-2.265c-.660519-.2874964-1.341371-.5258114-2.037-.713-.668583-.1702722-1.356082-.2549496-2.046-.2520745-1.455 0-2.592.3500745-3.417 1.0440745-.825.695-1.236 1.65-1.236 2.866 0 .648.126 1.212.378 1.692s.587.904 1.007 1.268c.424.363 1.053.74 1.892 1.137.895.42 1.487.731 1.781.927s.513.396.662.606c.151923.2097561.231906.4630349.228.722 0 .485-.172.844-.512 1.09-.345.248-.835.369-1.473.369-.595641-.0089744-1.187723-.0936535-1.762-.252-.644-.163-1.431-.456-2.359-.871v2.707c1.128.55 2.429.825 3.892.825 1.59 0 2.839-.359 3.73-1.072zm-324.958-20.343v-4.456h2.233l2.592 4.446h1.468l-2.904-4.8c1.431-.494 2.149-1.449 2.149-2.866 0-1.006-.317-1.761-.942-2.265-.63-.503-1.599-.75-2.909-.75h-2.932v10.69h1.245zm1.701-5.513h-1.701l.005-.005v-4.082h1.613c.918 0 1.584.153 2.004.466.42.312.625.83.625 1.528 0 .7-.206 1.221-.616 1.57-.41.346-1.053.523-1.93.523zm12.193-5.178h1.338l-3.85 10.69h-1.226l-3.837-10.689h1.315l2.457 6.916c.284.792.508 1.57.67 2.316.178-.792.406-1.575.686-2.363l2.447-6.869zm7.972 7.293 1.333 3.398h1.291l-4.204-10.733h-1.05l-4.226 10.733h1.258l1.315-3.398h4.284zm-1.632-4.432 1.245 3.31h-3.459l1.259-3.31c.2-.559.354-1.076.461-1.542.168.61.331 1.123.494 1.542zm6.74 3.384v4.446h-1.244v-10.69h2.932c1.31 0 2.28.246 2.91.75.624.503.94 1.258.94 2.264 0 1.417-.717 2.372-2.148 2.866l2.904 4.8h-1.469l-2.591-4.446h-2.233v.01zm0-1.067h1.702c.877 0 1.52-.177 1.93-.522.41-.35.615-.872.615-1.57 0-.7-.205-1.217-.624-1.53-.42-.312-1.086-.465-2.005-.465h-1.612v4.082l-.004.005zm14.886 4.11c.956-.932 1.436-2.279 1.436-4.045 0-1.655-.457-2.94-1.38-3.863-.918-.918-2.214-1.38-3.873-1.38h-3.278v10.686h2.96c1.8 0 3.175-.466 4.135-1.398zm-.927-7.149c.699.709 1.049 1.757 1.049 3.15h-.005c0 1.426-.368 2.508-1.114 3.235-.746.731-1.86 1.095-3.343 1.095h-1.514v-8.538h1.808c1.38 0 2.415.355 3.119 1.058zm16.262-2.138v6.916c0 1.22-.368 2.176-1.105 2.87-.736.695-1.748 1.05-3.034 1.05-1.287 0-2.285-.355-2.988-1.054-.704-.704-1.054-1.664-1.054-2.894v-6.894h1.245v6.972c0 .895.247 1.575.731 2.055.485.48 1.203.718 2.154.718s1.594-.242 2.084-.722.732-1.17.732-2.07v-6.957h1.24v.01zm9.538 10.69h1.426v-10.69h-1.16v6.138c-.015.303 0 .815.032 1.528s.056 1.137.065 1.268h-.056l-5.827-8.935h-1.403v10.69h1.147v-6.075c0-.876-.047-1.841-.121-2.894h.056l5.84 8.97zm5.38-10.69h-1.245v10.69h1.245zm10.147 0h-1.337l-2.443 6.87c-.28.787-.508 1.57-.685 2.362-.174178-.7855926-.39864-1.5591854-.672-2.316l-2.456-6.917h-1.315l3.832 10.69h1.226zm7.207 10.69h-5.958v-10.69h5.958v1.105h-4.718v3.444h4.429v1.095h-4.429v3.936h4.718zm3.39 0v-4.455h2.233l2.592 4.446h1.468l-2.904-4.8c1.431-.494 2.149-1.449 2.149-2.866 0-1.006-.317-1.761-.942-2.265-.629-.503-1.599-.75-2.909-.75h-2.932v10.69zm1.701-5.512h-1.701l.005-.005v-4.083h1.612c.919 0 1.585.153 2.005.466.419.312.624.83.624 1.528 0 .7-.205 1.221-.615 1.57-.41.346-1.053.523-1.93.523zm14.081-5.179h1.245v10.69h-1.245v-10.689zm7.241 10.69h-1.24v-9.584h-3.389v-1.106h8.013v.01h1.278l2.829 5.34v-.005l2.849-5.34h1.347l-3.566 6.543v4.147h-1.259v-4.087l-3.478-6.445v.942h-3.384v9.586z" fill="#939596"/></g></svg>